<svg fill="none" height="24" viewBox="0 0 24 24" width="24" xmlns="http://www.w3.org/2000/svg"><g fill="#1c274c"><path d="m10 2c-.9665 0-1.75.7835-1.75 1.75s.7835 1.75 1.75 1.75h4c.9665 0 1.75-.7835 1.75-1.75s-.7835-1.75-1.75-1.75z" opacity=".5"/><path d="m3.86327 16.2052c-.85795-3.4318-1.28692-5.1477-.38609-6.30144.90083-1.15376 2.66954-1.15376 6.20695-1.15376h4.63067c3.5374 0 5.3061 0 6.207 1.15376.9008 1.15374.4718 2.86964-.3861 6.30144-.5457 2.1827-.8185 3.274-1.6323 3.9094s-1.9387.6354-4.1886.6354h-4.63067c-2.24986 0-3.37478 0-4.18857-.6354-.81378-.6354-1.08662-1.7267-1.63229-3.9094z" opacity=".5"/><path d="m15.5805 4.5023c.1087-.2279.1695-.48299.1695-.7523 0-.26805-.0603-.52203-.168-.74911.6835.00496 1.2163.03634 1.6918.2222.5682.22207 1.0624.59957 1.4261 1.08933.367.49408.5392 1.12737.7763 1.99902l.0464.17037.5127 2.96298c-.4087-.28193-.9357-.44946-1.6173-.54901l-.3613-2.08802c-.2838-1.03971-.3868-1.36644-.561-1.60102-.1958-.26372-.462-.46699-.7679-.58656-.2198-.08591-.4854-.11119-1.1473-.11788z"/><path d="m8.41799 3.00089c-.10772.22708-.16799.48106-.16799.74911 0 .26931.06083.52441.16951.75231-.66185.00669-.92743.03196-1.14724.11787-.30594.11957-.57206.32284-.76791.58656-.17421.23458-.27721.56131-.56099 1.60102l-.3613 2.08793c-.68154.09949-1.20854.26691-1.61723.54864l.51264-2.96252.04639-.17036c.23708-.87165.40933-1.50495.77626-1.99903.36371-.48976.85793-.86726 1.42611-1.08933.47553-.18585 1.00825-.21723 1.69175-.2222z"/><path d="m8.75 12.75c0-.4142-.33579-.75-.75-.75s-.75.3358-.75.75v4c0 .4142.33579.75.75.75s.75-.3358.75-.75z"/><path d="m16 12c.4142 0 .75.3358.75.75v4c0 .4142-.3358.75-.75.75s-.75-.3358-.75-.75v-4c0-.4142.3358-.75.75-.75z"/><path d="m12.75 12.75c0-.4142-.3358-.75-.75-.75s-.75.3358-.75.75v4c0 .4142.3358.75.75.75s.75-.3358.75-.75z"/></g></svg>