<svg fill="none" height="30" viewBox="0 0 22 22" width="30" xmlns="http://www.w3.org/2000/svg"><g fill="#1c274c"><path clip-rule="evenodd" d="m16 11h-12v5c0 2.8284 0 4.2426.87868 5.1213s2.29289.8787 5.12132.8787h4c2.8284 0 4.2426 0 5.1213-.8787s.8787-2.2929.8787-5.1213v-1c0-1.8856 0-2.8284-.5858-3.4142s-1.5286-.5858-3.4142-.5858z" fill-rule="evenodd" opacity=".5"/><path d="m14 16.5c0-.4222-.3972-.707-1.1916-1.2765-.8053-.5773-1.2079-.866-1.5082-.654-.3002.2119-.3002.7848-.3002 1.9305s0 1.7186.3002 1.9305c.3003.212.7029-.0767 1.5082-.654.7944-.5695 1.1916-.8543 1.1916-1.2765z"/><path d="m13.3176 8.19993.6003-5.03395-4.71072 1.26225-.04094.28439-.60407 5.06482 4.71863-1.26437z"/><path d="m3.48316 7.51489c-.20806.77646.03384 1.67923.51763 3.48481l2.99921-.8037.03904-.31375.60039-5.03394-.1031.02762c-1.80554.4838-2.70831.72569-3.27672 1.2941-.37237.37237-.64016.8362-.77645 1.34486z"/><path d="m18.2482 7.18208-3.4075.91303.6041-5.06481.0552-.27228c.1288-.0257.239-.04156.344-.04844 1.2108-.07936 2.3501.57846 2.8868 1.66671.1307.265.2209.60162.4013 1.27485.0601.22442.0902.33662.0966.4349.0265.4036-.1928.78339-.5555.96228-.0884.04356-.2006.07363-.425.13376z"/></g></svg>