<svg fill="none" height="24" viewBox="0 0 24 24" width="24" xmlns="http://www.w3.org/2000/svg"><g fill="#1c274c"><path d="m2.27749 5.24694c.11074-.39913.52408-.63292.92321-.52218l1.7037.47268c.91689.25439 1.6425.96122 1.89563 1.87745l2.15103 7.78601.15829.5466c.63314.2363 1.17695.6791 1.52205 1.2672l.31-.0957 8.8701-2.3051c.4009-.1042.8104.1363.9146.5372s-.1364.8103-.5373.9145l-8.8373 2.2967-.3287.1015c-.0067 1.2709-.8836 2.4317-2.21044 2.7765-1.59047.4133-3.22527-.5021-3.65144-2.0447-.42616-1.5426.51769-3.1282 2.10816-3.5415.07882-.0205.15774-.0377.23662-.0518l-2.15151-7.78797c-.10827-.39191-.42522-.71341-.85081-.83149l-1.7037-.47268c-.39914-.11074-.63293-.52408-.52219-.92322z"/><path d="m9.56443 8.73049.51447 1.86211c.485 1.7555.7275 2.6333 1.4405 3.0326.7129.3992 1.618.164 3.428-.3064l1.9199-.4989c1.8101-.4704 2.7151-.7056 3.1268-1.3972.4116-.6915.1691-1.56926-.3159-3.32482l-.5144-1.86208c-.485-1.75557-.7275-2.63336-1.4405-3.03261s-1.6181-.16404-3.4281.30636l-1.9199.49894c-1.8101.4704-2.71509.7056-3.12674 1.39713-.41164.69152-.16914 1.56931.31587 3.32487z" opacity=".5"/></g></svg>