<svg fill="none" height="24" viewBox="0 0 24 24" width="24" xmlns="http://www.w3.org/2000/svg"><g fill="#1c274d"><path clip-rule="evenodd" d="m14.25 4.47954v3.05766c-.0002.11122-.0004.26979.0209.4059.026.16641.1115.48769.4442.68301.3204.18811.6337.11825.7827.07195.1298-.04036.2722-.10818.3784-.15876l1.1238-.53385 1.1238.53385c.1062.05057.2486.1184.3784.15876.149.0463.4623.11616.7827-.07195.3327-.19532.4182-.51659.4442-.68301.0213-.1361.0211-.29465.0209-.40587v-4.50593c.1128-.0053.2236-.00978.3318-.01355 1.0718-.03734 1.918.843 1.918 1.91544v11.21041c0 1.111-.906 2.0099-2.0148 2.0792-.9695.0607-2.1085.1792-2.9852.4106-1.0814.2853-1.9892 1.0674-3.3724 1.4358-.6261.1668-1.3245.2565-1.6274.3233v-15.21863c.3208-.07857 1.3822-.20245 1.6737-.37112.1842-.10665.3775-.21543.5763-.32321zm5.4776 8.33856c.1005.4018-.1439.809-.5457.9095l-4 1c-.4018.1005-.809-.1439-.9095-.5457s.1439-.809.5457-.9095l4-1c.4018-.1005.809.1439.9095.5457z" fill-rule="evenodd"/><path d="m18.25 3.15101c-.62.0733-1.2296.18058-1.7502.33643-.2415.07231-.4936.16397-.7498.26896v.19362 2.98857l.7493-.35593.0088-.00444c.049-.02506.2555-.13065.4919-.13065.0475 0 .0939.00427.138.0113.1751.02792.3147.09933.3539.11935l.0088.00443.7493.35594v-3.29194z"/><path d="m12 5.21395c-.3342-.06348-1.0574-.16131-1.7177-.33851-1.3442-.36069-2.23309-1.11115-3.2823-1.38802-.88651-.23393-2.04123-.35254-3.0176-.41255-1.0961-.06737-1.9824.82474-1.9824 1.92291v11.14582c0 1.1109.90605 2.0098 2.01486 2.0792.96942.0606 2.10843.1792 2.98514.4105.48596.1283 1.21615.4312 1.87295.7259 1.00457.4508 2.05175.7964 3.12705 1.0334z" opacity=".5"/><path d="m4.27257 12.8183c.10046-.4019.50766-.6462.90951-.5457l4 1c.40185.1004.64617.5076.5457.9095-.10046.4018-.50766.6461-.9095.5457l-4-1c-.40185-.1005-.64617-.5077-.54571-.9095z"/><path d="m5.18208 8.27257c-.40185-.10046-.80905.14386-.90951.54571-.10046.40184.14386.80904.54571.9095l4 1.00002c.40184.1004.80904-.1439.9095-.5457.10047-.40187-.14385-.80907-.5457-.90953z"/></g></svg>