<svg fill="none" height="24" viewBox="0 0 24 24" width="24" xmlns="http://www.w3.org/2000/svg"><g fill="#1c274c"><path d="m2 12c0 5.5228 4.47715 10 10 10h9.25c.4142 0 .75-.3358.75-.75s-.3358-.75-.75-.75h-3.9796c2.8393-1.7642 4.7296-4.9113 4.7296-8.5 0-5.52285-4.4772-10-10-10-5.52285 0-10 4.47715-10 10z" opacity=".5"/><path clip-rule="evenodd" d="m12 15.75c-2.07107 0-3.75-1.6789-3.75-3.75 0-2.07107 1.67893-3.75 3.75-3.75 2.0711 0 3.75 1.67893 3.75 3.75 0 2.0711-1.6789 3.75-3.75 3.75z" fill-rule="evenodd"/><path d="m5.5 13c.55228 0 1-.4477 1-1s-.44772-1-1-1-1 .4477-1 1 .44772 1 1 1z"/><path d="m12 4.5c.5523 0 1 .44772 1 1s-.4477 1-1 1-1-.44772-1-1 .4477-1 1-1z"/><path d="m13 18.5c0-.5523-.4477-1-1-1s-1 .4477-1 1 .4477 1 1 1 1-.4477 1-1z"/><path d="m18.5 13c.5523 0 1-.4477 1-1s-.4477-1-1-1-1 .4477-1 1 .4477 1 1 1z"/></g></svg>