<svg fill="none" height="24" viewBox="0 0 24 24" width="24" xmlns="http://www.w3.org/2000/svg"><g fill="#1c274c"><path clip-rule="evenodd" d="m14.0137 17-.0058 2.0029c-.0014.4702-.0021.7052-.1488.8512-.1467.1459-.3824.1459-.8537.1459h-3.01038c-3.78064 0-5.67095 0-6.84544-1.1716-.80867-.8066-1.06055-1.9518-1.139-3.8179-.01556-.37-.02334-.5551.04576-.6785.06911-.1235.34499-.2775.89674-.5857.61278-.3422 1.02699-.996 1.02699-1.7463s-.41421-1.4041-1.02699-1.7463c-.55175-.30816-.82763-.46223-.89674-.58568-.0691-.12344-.06132-.30848-.04576-.67855.07845-1.86608.33033-3.01124 1.139-3.8179 1.17449-1.17157 3.06481-1.17157 6.84544-1.17157h3.51018c.2762 0 .5004.22298.5012.49855l.0073 2.50145c0 .55228.4488 1 1.0025 1v2c-.5537 0-1.0025.4477-1.0025 1v2c0 .5523.4488 1 1.0025 1v2c-.5537 0-1.0025.4477-1.0025 1z" fill-rule="evenodd"/><path d="m15.0166 15.9998c.5537 0 1.0025.4477 1.0025 1v1.9765c0 .4815 0 .7223.1544.8699.1544.1477.3906.1377.8631.1177 1.8629-.0789 3.0075-.3309 3.8142-1.1357.8087-.8066 1.0606-1.9518 1.139-3.8178.0156-.3701.0234-.5552-.0457-.6786-.0691-.1235-.345-.2775-.8968-.5856-.6127-.3422-1.027-.9961-1.027-1.7464s.4143-1.4041 1.027-1.7463c.5518-.30814.8277-.4622.8968-.58565s.0613-.30849.0457-.67856c-.0784-1.86608-.3303-3.01124-1.139-3.8179-.8777-.87553-2.1552-1.09676-4.3226-1.15267-.2796-.00721-.5091.21828-.5091.49728v2.48382c0 .55229-.4488 1-1.0025 1v2c.5537 0 1.0025.44768 1.0025.99998v2c0 .5523-.4488 1-1.0025 1z" opacity=".5"/></g></svg>