<svg fill="none" height="24" viewBox="0 0 24 24" width="24" xmlns="http://www.w3.org/2000/svg"><g fill="#1c274c"><path d="m2 11.5c0-3.28748 0-4.93122.90796-6.03757.16622-.20254.35193-.38825.55447-.55447 1.10635-.90796 2.75009-.90796 6.03757-.90796 3.2875 0 4.9312 0 6.0376.90796.2025.16622.3882.35193.5544.55447.908 1.10635.908 2.75009.908 6.03757v1c0 3.2875 0 4.9312-.908 6.0376-.1662.2025-.3519.3882-.5544.5544-1.1064.908-2.7501.908-6.0376.908-3.28748 0-4.93122 0-6.03757-.908-.20254-.1662-.38825-.3519-.55447-.5544-.90796-1.1064-.90796-2.7501-.90796-6.0376z" opacity=".5"/><path d="m17 9.50019.6584-.32918c1.9458-.97294 2.9188-1.45941 3.6302-1.01974s.7114 1.52745.7114 3.70303v.2918c0 2.1756 0 3.2633-.7114 3.703s-1.6844-.0468-3.6302-1.0197l-.6584-.3292z"/><path d="m10.25 9.5c0-.41421-.33579-.75-.75-.75s-.75.33579-.75.75v1.75h-1.75c-.41421 0-.75.3358-.75.75s.33579.75.75.75h1.75v1.75c0 .4142.33579.75.75.75s.75-.3358.75-.75v-1.75h1.75c.4142 0 .75-.3358.75-.75s-.3358-.75-.75-.75h-1.75z"/></g></svg>