<svg fill="none" height="24" viewBox="0 0 24 24" width="24" xmlns="http://www.w3.org/2000/svg"><g fill="#1c274c"><path d="m22 12c0 5.5228-4.4772 10-10 10-5.52285 0-10-4.4772-10-10 0-5.52285 4.47715-10 10-10 5.5228 0 10 4.47715 10 10z" opacity=".5"/><path d="m8.96967 8.96967c.29289-.29289.76777-.29289 1.06063 0l1.9697 1.96973 1.9697-1.96971c.2929-.29289.7677-.29289 1.0606 0s.2929.76777 0 1.06071l-1.9696 1.9696 1.9696 1.9696c.2929.2929.2929.7678 0 1.0607s-.7678.2929-1.0607 0l-1.9696-1.9696-1.9696 1.9696c-.29294.2929-.76782.2929-1.06071 0s-.29289-.7677 0-1.0606l1.96971-1.9697-1.96973-1.9697c-.29289-.29286-.29289-.76774 0-1.06063z"/></g></svg>