<svg fill="none" height="24" viewBox="0 0 24 24" width="24" xmlns="http://www.w3.org/2000/svg"><g fill="#1c274c"><path d="m20.5355 20.5355c1.4645-1.4644 1.4645-3.8215 1.4645-8.5355 0-.3415 0-.5122-.0152-.6858-.0706-.8093-.3988-1.60163-.9211-2.22386-.1121-.13347-.2357-.25717-.4831-.50456l-5.1664-5.16634c-.2474-.24738-.3711-.37109-.5045-.48313-.6223-.52231-1.4146-.8505-2.2239-.92116-.1736-.01515-.3443-.01515-.6858-.01515-4.71405 0-7.07107 0-8.53553 1.46447-1.46447 1.46446-1.46447 3.82148-1.46447 8.53553 0 4.714 0 7.0711 1.46447 8.5355.68403.6841 1.5628 1.0486 2.78553 1.2429l1.5.1529c1.1558.0687 2.5496.0687 4.25.0687s3.0942 0 4.25-.0687l1.5-.1529c1.2227-.1943 2.1015-.5588 2.7855-1.2429z" opacity=".5"/><path d="m7 7.25c-.41421 0-.75.33579-.75.75s.33579.75.75.75h6c.4142 0 .75-.33579.75-.75s-.3358-.75-.75-.75z"/><path d="m13.052 16.25c.8985 0 1.6477-.0001 2.2425.0799.6278.0844 1.1946.2701 1.65.7256.4555.4554.6412 1.0222.7256 1.65.08.5948.0799 1.344.0799 2.2425v.8332l-1.5.1407v-.9219c0-.964-.0016-1.6116-.0665-2.0946-.0621-.4615-.1693-.659-.2996-.7893s-.3278-.2375-.7893-.2996c-.483-.0649-1.1306-.0665-2.0946-.0665h-2c-.964 0-1.61157.0016-2.09461.0665-.46146.0621-.65895.1693-.78927.2996s-.23754.3278-.29958.7893c-.06494.483-.06654 1.1306-.06654 2.0946v.9258l-1.5-.1485v-.8293c-.00003-.8985-.00005-1.6477.07991-2.2425.08441-.6278.27008-1.1946.72555-1.65.45547-.4555 1.02227-.6412 1.65006-.7256.59478-.08 1.34398-.0799 2.24248-.0799z"/></g></svg>